<svg xmlns="http://www.w3.org/2000/svg" width="1600" height="560" viewBox="0 0 1600 560" role="img" aria-label="PointFive AI Efficiency OS documentation illustration">
  <defs>
    <linearGradient id="bg" x1="0" x2="1" y1="0" y2="1">
      <stop offset="0" stop-color="#FCFCF9"/>
      <stop offset="0.64" stop-color="#F5F2EC"/>
      <stop offset="1" stop-color="#EDE8DF"/>
    </linearGradient>
    <pattern id="grid" width="72" height="72" patternUnits="userSpaceOnUse">
      <path d="M72 0H0V72" fill="none" stroke="#1D242D" stroke-opacity=".055" stroke-width="1"/>
    </pattern>
    <filter id="shadow" x="-20%" y="-30%" width="140%" height="160%">
      <feDropShadow dx="0" dy="18" stdDeviation="22" flood-color="#1D242D" flood-opacity=".13"/>
    </filter>
  </defs>
  <rect width="1600" height="560" rx="28" fill="url(#bg)"/>
  <rect width="1600" height="560" rx="28" fill="url(#grid)"/>
  <circle cx="1255" cy="135" r="188" fill="#027A48" opacity=".10"/>
  <circle cx="1398" cy="414" r="138" fill="#FF6259" opacity=".12"/>
  <g filter="url(#shadow)">
    <rect x="190" y="120" width="1220" height="320" rx="28" fill="#FCFCF9" stroke="#1D242D" stroke-opacity=".10"/>
    <rect x="230" y="170" width="250" height="90" rx="18" fill="#F5F2EC" stroke="#1D242D" stroke-opacity=".10"/>
    <rect x="230" y="302" width="250" height="90" rx="18" fill="#F5F2EC" stroke="#1D242D" stroke-opacity=".10"/>
    <rect x="1058" y="170" width="250" height="90" rx="18" fill="#F5F2EC" stroke="#1D242D" stroke-opacity=".10"/>
    <rect x="1058" y="302" width="250" height="90" rx="18" fill="#F5F2EC" stroke="#1D242D" stroke-opacity=".10"/>
    <circle cx="800" cy="280" r="112" fill="#1D242D"/>
    <circle cx="800" cy="280" r="62" fill="#027A48"/>
    <path d="M800 218a62 62 0 0 1 0 124" fill="#5DF2B6"/>
    <text x="800" y="288" text-anchor="middle" font-family="Inter, Arial, sans-serif" font-size="22" font-weight="760" fill="#FCFCF9">Brain</text>
    <path d="M480 215H673" stroke="#027A48" stroke-width="4" stroke-linecap="round"/>
    <path d="M480 347H673" stroke="#027A48" stroke-width="4" stroke-linecap="round"/>
    <path d="M927 215H1058" stroke="#027A48" stroke-width="4" stroke-linecap="round"/>
    <path d="M927 347H1058" stroke="#027A48" stroke-width="4" stroke-linecap="round"/>
    <text x="260" y="205" font-family="Inter, Arial, sans-serif" font-size="18" font-weight="760" fill="#1D242D">Cloud + AI spend</text>
    <text x="260" y="232" font-family="Inter, Arial, sans-serif" font-size="16" fill="#475467">AWS, Azure, GCP, GPUs</text>
    <text x="260" y="337" font-family="Inter, Arial, sans-serif" font-size="18" font-weight="760" fill="#1D242D">Developer tools</text>
    <text x="260" y="364" font-family="Inter, Arial, sans-serif" font-size="16" fill="#475467">CI/CD, IDEs, MCP</text>
    <text x="1088" y="205" font-family="Inter, Arial, sans-serif" font-size="18" font-weight="760" fill="#1D242D">DeepWaste findings</text>
    <text x="1088" y="232" font-family="Inter, Arial, sans-serif" font-size="16" fill="#475467">Context + impact</text>
    <text x="1088" y="337" font-family="Inter, Arial, sans-serif" font-size="18" font-weight="760" fill="#1D242D">Auditable fixes</text>
    <text x="1088" y="364" font-family="Inter, Arial, sans-serif" font-size="16" fill="#475467">Human approval first</text>
  </g>
</svg>
